<svg preserveAspectRatio="none" overflow="visible" style="display: block;" width="22.3333" height="26.7858" viewBox="0 0 22.3333 26.7858" fill="none" xmlns="http://www.w3.org/2000/svg">
<g id="Icon Container">
<g id="Group">
<path id="Vector" d="M15.4913 25.9943C17.5335 25.6499 19.8215 24.9874 21.2262 23.7122C21.7642 23.2253 21.9667 22.4668 21.7443 21.7812C21.3458 20.549 19.9876 17.5018 15.9827 15.7993C15.478 15.584 14.9599 15.4084 14.4353 15.266C17.0852 14.0305 18.9282 11.3509 18.9282 8.24403C18.9316 3.97454 15.4481 0.5 11.1676 0.5C6.88716 0.5 3.40368 3.97454 3.40368 8.24403C3.40368 11.3476 5.24338 14.0305 7.89335 15.2627C7.32218 15.4183 6.75765 15.6171 6.20973 15.8589C2.45726 17.5084 1.07915 20.2708 0.590993 21.7679C0.365181 22.4635 0.567748 23.2286 1.10903 23.7188C2.51039 24.9907 4.78512 25.6499 6.81742 25.9943" stroke="#313537" stroke-miterlimit="10"/>
</g>
<path id="Vector_2" d="M4.73207 4.02417C6.11807 4.87338 8.2317 5.5664 10.2972 4.74401C10.8823 4.51103 11.6021 4.71056 11.9617 5.22761C13.1683 6.96228 15.537 8.66131 18.9483 8.66131" stroke="#313537" stroke-miterlimit="10"/>
</g>
</svg>
