<svg preserveAspectRatio="none" overflow="visible" style="display: block;" width="14.71" height="6.01773" viewBox="0 0 14.71 6.01773" fill="none" xmlns="http://www.w3.org/2000/svg">
<g id="Group 633060">
<path id="Rectangle 1763" d="M0 0.668637C0 0.299359 0.299359 0 0.668637 0H14.0414C14.4107 0 14.71 0.299359 14.71 0.668637V5.3491C14.71 5.71838 14.4107 6.01773 14.0414 6.01773H0.668637C0.299359 6.01773 0 5.71838 0 5.3491V0.668637Z" fill="#BE3850"/>
<g id="PDF">
<path id="Vector" d="M9.14734 4.5133V1.59561H10.9566V1.97457H9.58755V2.86355H10.827V3.24109H9.58755V4.5133H9.14734Z" fill="white"/>
<path id="Vector_2" d="M7.19663 4.5133H6.25209V1.59561H7.22655C7.51243 1.59561 7.75794 1.65402 7.96309 1.77085C8.16824 1.88672 8.32543 2.0534 8.43465 2.2709C8.54483 2.48745 8.59991 2.74721 8.59991 3.05018C8.59991 3.35411 8.54435 3.6153 8.43323 3.83374C8.32306 4.05219 8.16349 4.2203 7.95455 4.33807C7.7456 4.45489 7.49296 4.5133 7.19663 4.5133ZM6.6923 4.12865H7.17241C7.39466 4.12865 7.57939 4.08686 7.7266 4.00328C7.87382 3.91875 7.98399 3.7967 8.05712 3.63714C8.13025 3.47663 8.16682 3.28098 8.16682 3.05018C8.16682 2.82129 8.13025 2.62706 8.05712 2.4675C7.98494 2.30794 7.87714 2.18684 7.73372 2.10421C7.59031 2.02158 7.41223 1.98027 7.19948 1.98027H6.6923V4.12865Z" fill="white"/>
<path id="Vector_3" d="M3.68594 4.51335V1.59566H4.72594C4.95293 1.59566 5.14099 1.63697 5.2901 1.7196C5.43922 1.80223 5.55081 1.91525 5.6249 2.05867C5.69898 2.20114 5.73602 2.36165 5.73602 2.5402C5.73602 2.71971 5.6985 2.88117 5.62347 3.02458C5.54939 3.16705 5.43732 3.28007 5.28725 3.36365C5.13814 3.44628 4.95056 3.4876 4.72451 3.4876H4.00934V3.11434H4.68462C4.82804 3.11434 4.94439 3.08964 5.03366 3.04026C5.12294 2.98992 5.18848 2.92153 5.23027 2.83511C5.27206 2.74868 5.29295 2.65038 5.29295 2.5402C5.29295 2.43003 5.27206 2.3322 5.23027 2.24672C5.18848 2.16124 5.12247 2.09429 5.03224 2.04585C4.94296 1.99741 4.82519 1.97319 4.67893 1.97319H4.12616V4.51335H3.68594Z" fill="white"/>
</g>
</g>
</svg>
